<svg width="148" height="46" viewBox="0 0 148 46" fill="none" xmlns="http://www.w3.org/2000/svg">
<path d="M3.22656 9.875H10.3594V5.29688H12.3906V16.5H10.3594V11.9219H3.22656V16.5H1.19531V5.29688H3.22656V9.875ZM16.8203 16.5H14.7891V5.29688H16.8203V16.5ZM29.9609 13.2031C29.9609 13.6042 29.9089 13.9661 29.8047 14.2891C29.7057 14.6068 29.5729 14.888 29.4062 15.1328C29.2396 15.3776 29.0443 15.5859 28.8203 15.7578C28.5964 15.9297 28.3646 16.0703 28.125 16.1797C27.8854 16.2891 27.6406 16.3698 27.3906 16.4219C27.1458 16.474 26.9141 16.5 26.6953 16.5H18.8594V14.4688H26.6953C27.0859 14.4688 27.388 14.3542 27.6016 14.125C27.8203 13.8958 27.9297 13.5885 27.9297 13.2031C27.9297 13.0156 27.901 12.8438 27.8438 12.6875C27.7865 12.5312 27.7031 12.3958 27.5938 12.2812C27.4896 12.1667 27.3594 12.0781 27.2031 12.0156C27.0521 11.9531 26.8828 11.9219 26.6953 11.9219H22.0234C21.6953 11.9219 21.3411 11.8646 20.9609 11.75C20.5807 11.6302 20.2266 11.4401 19.8984 11.1797C19.5755 10.9193 19.3047 10.5781 19.0859 10.1562C18.8724 9.73438 18.7656 9.21875 18.7656 8.60938C18.7656 8 18.8724 7.48698 19.0859 7.07031C19.3047 6.64844 19.5755 6.30729 19.8984 6.04688C20.2266 5.78125 20.5807 5.59115 20.9609 5.47656C21.3411 5.35677 21.6953 5.29688 22.0234 5.29688H28.9375V7.32812H22.0234C21.638 7.32812 21.3359 7.44531 21.1172 7.67969C20.9036 7.91406 20.7969 8.22396 20.7969 8.60938C20.7969 9 20.9036 9.3099 21.1172 9.53906C21.3359 9.76302 21.638 9.875 22.0234 9.875H26.6953H26.7109C26.9297 9.88021 27.1615 9.91146 27.4062 9.96875C27.651 10.0208 27.8932 10.1042 28.1328 10.2188C28.3776 10.3333 28.6094 10.4792 28.8281 10.6562C29.0469 10.8281 29.2396 11.0365 29.4062 11.2812C29.5781 11.526 29.7135 11.8073 29.8125 12.125C29.9115 12.4427 29.9609 12.8021 29.9609 13.2031ZM41.6797 16.5H34.3516C34.1641 16.5 33.9609 16.4792 33.7422 16.4375C33.5286 16.3906 33.3151 16.3203 33.1016 16.2266C32.8932 16.1328 32.6927 16.013 32.5 15.8672C32.3073 15.7161 32.1354 15.5365 31.9844 15.3281C31.8385 15.1146 31.7214 14.8698 31.6328 14.5938C31.5443 14.3125 31.5 13.9974 31.5 13.6484V8.14844C31.5 7.96094 31.5208 7.76042 31.5625 7.54688C31.6094 7.32812 31.6797 7.11458 31.7734 6.90625C31.8672 6.69271 31.9896 6.48958 32.1406 6.29688C32.2917 6.10417 32.4714 5.9349 32.6797 5.78906C32.8932 5.63802 33.138 5.51823 33.4141 5.42969C33.6901 5.34115 34.0026 5.29688 34.3516 5.29688H41.6797V7.32812H34.3516C34.0859 7.32812 33.8828 7.39844 33.7422 7.53906C33.6016 7.67969 33.5312 7.88802 33.5312 8.16406V13.6484C33.5312 13.9089 33.6016 14.112 33.7422 14.2578C33.888 14.3984 34.0911 14.4688 34.3516 14.4688H41.6797V16.5ZM55.1875 11.9688C55.1875 12.651 55.0703 13.2786 54.8359 13.8516C54.6016 14.4245 54.276 14.9193 53.8594 15.3359C53.4427 15.7526 52.9479 16.0781 52.375 16.3125C51.8073 16.5417 51.1875 16.6562 50.5156 16.6562H47.7656C47.0938 16.6562 46.4714 16.5417 45.8984 16.3125C45.3255 16.0781 44.8307 15.7526 44.4141 15.3359C43.9974 14.9193 43.6693 14.4245 43.4297 13.8516C43.1953 13.2786 43.0781 12.651 43.0781 11.9688V9.82812C43.0781 9.15104 43.1953 8.52604 43.4297 7.95312C43.6693 7.375 43.9974 6.88021 44.4141 6.46875C44.8307 6.05208 45.3255 5.72656 45.8984 5.49219C46.4714 5.25781 47.0938 5.14062 47.7656 5.14062H50.5156C51.1875 5.14062 51.8073 5.25781 52.375 5.49219C52.9479 5.72656 53.4427 6.05208 53.8594 6.46875C54.276 6.88021 54.6016 7.375 54.8359 7.95312C55.0703 8.52604 55.1875 9.15104 55.1875 9.82812V11.9688ZM53.1562 9.82812C53.1562 9.42708 53.0911 9.0651 52.9609 8.74219C52.8359 8.41406 52.6562 8.13542 52.4219 7.90625C52.1927 7.67188 51.9141 7.49219 51.5859 7.36719C51.263 7.23698 50.9062 7.17188 50.5156 7.17188H47.7656C47.3698 7.17188 47.0078 7.23698 46.6797 7.36719C46.3568 7.49219 46.0781 7.67188 45.8438 7.90625C45.6094 8.13542 45.4271 8.41406 45.2969 8.74219C45.1719 9.0651 45.1094 9.42708 45.1094 9.82812V11.9688C45.1094 12.3698 45.1719 12.7344 45.2969 13.0625C45.4271 13.3854 45.6094 13.6641 45.8438 13.8984C46.0781 14.1276 46.3568 14.3073 46.6797 14.4375C47.0078 14.5625 47.3698 14.625 47.7656 14.625H50.5C50.8958 14.625 51.2552 14.5625 51.5781 14.4375C51.9062 14.3073 52.1875 14.1276 52.4219 13.8984C52.6562 13.6641 52.8359 13.3854 52.9609 13.0625C53.0911 12.7344 53.1562 12.3698 53.1562 11.9688V9.82812ZM68.375 11.8125C68.375 12.4948 68.2552 13.1224 68.0156 13.6953C67.7812 14.2682 67.4557 14.763 67.0391 15.1797C66.6224 15.5911 66.1276 15.9141 65.5547 16.1484C64.9818 16.3828 64.3594 16.5 63.6875 16.5H58.2031C58.0573 16.5 57.9219 16.474 57.7969 16.4219C57.6719 16.3698 57.5625 16.2995 57.4688 16.2109C57.3802 16.1172 57.3099 16.0078 57.2578 15.8828C57.2057 15.7578 57.1797 15.6224 57.1797 15.4766V6.32031C57.1797 6.17969 57.2057 6.04688 57.2578 5.92188C57.3099 5.79688 57.3802 5.6875 57.4688 5.59375C57.5625 5.5 57.6719 5.42708 57.7969 5.375C57.9219 5.32292 58.0573 5.29688 58.2031 5.29688H63.6875C64.3594 5.29688 64.9818 5.41406 65.5547 5.64844C66.1276 5.88281 66.6224 6.20833 67.0391 6.625C67.4557 7.03646 67.7812 7.53125 68.0156 8.10938C68.2552 8.68229 68.375 9.30729 68.375 9.98438V11.8125ZM66.3438 9.98438C66.3438 9.58854 66.2786 9.22656 66.1484 8.89844C66.0234 8.57031 65.8438 8.29167 65.6094 8.0625C65.375 7.82812 65.0938 7.64844 64.7656 7.52344C64.4427 7.39323 64.0833 7.32812 63.6875 7.32812H59.2109V14.4688H63.6875C64.0833 14.4688 64.4427 14.4062 64.7656 14.2812C65.0938 14.151 65.375 13.9714 65.6094 13.7422C65.8438 13.5078 66.0234 13.2292 66.1484 12.9062C66.2786 12.5781 66.3438 12.2135 66.3438 11.8125V9.98438ZM79.5781 11.9219H73.1641V9.875H79.5781V11.9219ZM80.4922 16.5H73.1641C72.8828 16.5 72.5755 16.4505 72.2422 16.3516C71.9089 16.2526 71.599 16.0911 71.3125 15.8672C71.0312 15.638 70.7943 15.3438 70.6016 14.9844C70.4141 14.6198 70.3203 14.1745 70.3203 13.6484V6.32031C70.3203 6.17969 70.3464 6.04688 70.3984 5.92188C70.4505 5.79688 70.5208 5.6875 70.6094 5.59375C70.7031 5.5 70.8125 5.42708 70.9375 5.375C71.0625 5.32292 71.1979 5.29688 71.3438 5.29688H80.4922V7.32812H72.3516V13.6484C72.3516 13.9141 72.4219 14.1172 72.5625 14.2578C72.7031 14.3984 72.9089 14.4688 73.1797 14.4688H80.4922V16.5Z" fill="#006B3F"/>
<path d="M13.4385 36.791C13.4385 37.2422 13.3799 37.6494 13.2627 38.0127C13.1514 38.3701 13.002 38.6865 12.8145 38.9619C12.627 39.2373 12.4072 39.4717 12.1553 39.665C11.9033 39.8584 11.6426 40.0166 11.373 40.1396C11.1035 40.2627 10.8281 40.3535 10.5469 40.4121C10.2715 40.4707 10.0107 40.5 9.76465 40.5H0.949219V38.2148H9.76465C10.2041 38.2148 10.5439 38.0859 10.7842 37.8281C11.0303 37.5703 11.1533 37.2246 11.1533 36.791C11.1533 36.5801 11.1211 36.3867 11.0566 36.2109C10.9922 36.0352 10.8984 35.8828 10.7754 35.7539C10.6582 35.625 10.5117 35.5254 10.3359 35.4551C10.166 35.3848 9.97559 35.3496 9.76465 35.3496H4.50879C4.13965 35.3496 3.74121 35.2852 3.31348 35.1562C2.88574 35.0215 2.4873 34.8076 2.11816 34.5146C1.75488 34.2217 1.4502 33.8379 1.2041 33.3633C0.963867 32.8887 0.84375 32.3086 0.84375 31.623C0.84375 30.9375 0.963867 30.3604 1.2041 29.8916C1.4502 29.417 1.75488 29.0332 2.11816 28.7402C2.4873 28.4414 2.88574 28.2275 3.31348 28.0986C3.74121 27.9639 4.13965 27.8965 4.50879 27.8965H12.2871V30.1816H4.50879C4.0752 30.1816 3.73535 30.3135 3.48926 30.5771C3.24902 30.8408 3.12891 31.1895 3.12891 31.623C3.12891 32.0625 3.24902 32.4111 3.48926 32.6689C3.73535 32.9209 4.0752 33.0469 4.50879 33.0469H9.76465H9.78223C10.0283 33.0527 10.2891 33.0879 10.5645 33.1523C10.8398 33.2109 11.1123 33.3047 11.3818 33.4336C11.6572 33.5625 11.918 33.7266 12.1641 33.9258C12.4102 34.1191 12.627 34.3535 12.8145 34.6289C13.0078 34.9043 13.1602 35.2207 13.2715 35.5781C13.3828 35.9355 13.4385 36.3398 13.4385 36.791ZM25.418 37.292C25.418 37.6846 25.3682 38.0391 25.2686 38.3555C25.1689 38.666 25.0371 38.9414 24.873 39.1816C24.709 39.416 24.5186 39.6182 24.3018 39.7881C24.085 39.9521 23.8564 40.0869 23.6162 40.1924C23.3818 40.2979 23.1416 40.377 22.8955 40.4297C22.6553 40.4766 22.4268 40.5 22.21 40.5H18.0879C17.7715 40.5 17.4258 40.4443 17.0508 40.333C16.6758 40.2217 16.3271 40.04 16.0049 39.7881C15.6885 39.5303 15.4219 39.1992 15.2051 38.7949C14.9941 38.3848 14.8887 37.8838 14.8887 37.292V34.1982C14.8887 33.6123 14.9941 33.1172 15.2051 32.7129C15.4219 32.3027 15.6885 31.9717 16.0049 31.7197C16.3271 31.4619 16.6758 31.2773 17.0508 31.166C17.4258 31.0547 17.7715 30.999 18.0879 30.999H22.21C22.7959 30.999 23.2939 31.1045 23.7041 31.3154C24.1143 31.5264 24.4453 31.793 24.6973 32.1152C24.9492 32.4316 25.1309 32.7773 25.2422 33.1523C25.3594 33.5273 25.418 33.876 25.418 34.1982V37.292ZM23.1328 34.2158C23.1328 33.8994 23.0537 33.665 22.8955 33.5127C22.7373 33.3604 22.5088 33.2842 22.21 33.2842H18.1055C17.8008 33.2842 17.5693 33.3633 17.4111 33.5215C17.2529 33.6738 17.1738 33.8994 17.1738 34.1982V37.292C17.1738 37.5908 17.2529 37.8193 17.4111 37.9775C17.5693 38.1357 17.8008 38.2148 18.1055 38.2148H22.21C22.5205 38.2148 22.752 38.1357 22.9043 37.9775C23.0566 37.8193 23.1328 37.5908 23.1328 37.292V34.2158ZM31.5439 40.5H30.5244C30.1963 40.5 29.8447 40.4443 29.4697 40.333C29.1006 40.2217 28.7549 40.04 28.4326 39.7881C28.1104 39.5303 27.8438 39.1992 27.6328 38.7949C27.4219 38.3848 27.3164 37.8838 27.3164 37.292V26.9824H29.6016V37.292C29.6016 37.5732 29.6895 37.7988 29.8652 37.9688C30.041 38.1328 30.2607 38.2148 30.5244 38.2148H31.5439V40.5ZM43.2598 39.3486C43.2598 39.5127 43.2305 39.665 43.1719 39.8057C43.1133 39.9463 43.0312 40.0693 42.9258 40.1748C42.8262 40.2744 42.7061 40.3535 42.5654 40.4121C42.4307 40.4707 42.2842 40.5 42.126 40.5H36.958C36.6768 40.5 36.375 40.4678 36.0527 40.4033C35.7363 40.3389 35.4229 40.2363 35.1123 40.0957C34.8018 39.9492 34.5 39.7676 34.207 39.5508C33.9199 39.3281 33.668 39.0615 33.4512 38.751C33.2344 38.4346 33.0586 38.0713 32.9238 37.6611C32.7949 37.251 32.7305 36.7881 32.7305 36.2725V30.999H35.0156V36.2725C35.0156 36.5713 35.0654 36.8408 35.165 37.0811C35.2705 37.3154 35.4111 37.5176 35.5869 37.6875C35.7627 37.8574 35.9678 37.9893 36.2021 38.083C36.4424 38.1709 36.7002 38.2148 36.9756 38.2148H40.9746V30.999H43.2598V39.3486ZM54.0439 33.2842H50.0537V40.5H47.7422V33.2842H44.7715V30.999H47.7422V27.8965H50.0537V30.999H54.0439V33.2842ZM57.8672 29.0479H55.582V26.9824H57.8672V29.0479ZM57.8672 40.5H55.582V30.999H57.8672V40.5ZM70.4004 37.292C70.4004 37.6846 70.3506 38.0391 70.251 38.3555C70.1514 38.666 70.0195 38.9414 69.8555 39.1816C69.6914 39.416 69.501 39.6182 69.2842 39.7881C69.0674 39.9521 68.8389 40.0869 68.5986 40.1924C68.3643 40.2979 68.124 40.377 67.8779 40.4297C67.6377 40.4766 67.4092 40.5 67.1924 40.5H63.0703C62.7539 40.5 62.4082 40.4443 62.0332 40.333C61.6582 40.2217 61.3096 40.04 60.9873 39.7881C60.6709 39.5303 60.4043 39.1992 60.1875 38.7949C59.9766 38.3848 59.8711 37.8838 59.8711 37.292V34.1982C59.8711 33.6123 59.9766 33.1172 60.1875 32.7129C60.4043 32.3027 60.6709 31.9717 60.9873 31.7197C61.3096 31.4619 61.6582 31.2773 62.0332 31.166C62.4082 31.0547 62.7539 30.999 63.0703 30.999H67.1924C67.7783 30.999 68.2764 31.1045 68.6865 31.3154C69.0967 31.5264 69.4277 31.793 69.6797 32.1152C69.9316 32.4316 70.1133 32.7773 70.2246 33.1523C70.3418 33.5273 70.4004 33.876 70.4004 34.1982V37.292ZM68.1152 34.2158C68.1152 33.8994 68.0361 33.665 67.8779 33.5127C67.7197 33.3604 67.4912 33.2842 67.1924 33.2842H63.0879C62.7832 33.2842 62.5518 33.3633 62.3936 33.5215C62.2354 33.6738 62.1562 33.8994 62.1562 34.1982V37.292C62.1562 37.5908 62.2354 37.8193 62.3936 37.9775C62.5518 38.1357 62.7832 38.2148 63.0879 38.2148H67.1924C67.5029 38.2148 67.7344 38.1357 67.8867 37.9775C68.0391 37.8193 68.1152 37.5908 68.1152 37.292V34.2158ZM82.8809 40.5H80.5957V35.2266C80.5957 34.9277 80.543 34.6611 80.4375 34.4268C80.3379 34.1865 80.2002 33.9814 80.0244 33.8115C79.8486 33.6416 79.6406 33.5127 79.4004 33.4248C79.166 33.3311 78.9111 33.2842 78.6357 33.2842H74.6367V40.5H72.3516V32.1328C72.3516 31.9746 72.3809 31.8281 72.4395 31.6934C72.498 31.5527 72.5801 31.4326 72.6855 31.333C72.791 31.2275 72.9141 31.1455 73.0547 31.0869C73.1953 31.0283 73.3447 30.999 73.5029 30.999H78.6533C78.9404 30.999 79.2422 31.0312 79.5586 31.0957C79.8809 31.1602 80.1973 31.2656 80.5078 31.4121C80.8242 31.5527 81.123 31.7344 81.4043 31.957C81.6914 32.1738 81.9434 32.4404 82.1602 32.7568C82.3828 33.0674 82.5586 33.4277 82.6875 33.8379C82.8164 34.248 82.8809 34.7109 82.8809 35.2266V40.5ZM94.0693 37.292C94.0693 37.6846 94.0195 38.0391 93.9199 38.3555C93.8203 38.666 93.6885 38.9414 93.5244 39.1816C93.3604 39.416 93.1699 39.6182 92.9531 39.7881C92.7363 39.9521 92.5078 40.0869 92.2676 40.1924C92.0332 40.2979 91.793 40.377 91.5469 40.4297C91.3066 40.4766 91.0781 40.5 90.8613 40.5H84.6738V38.2148H90.8438C91.1543 38.2148 91.3887 38.1357 91.5469 37.9775C91.7051 37.8193 91.7842 37.5908 91.7842 37.292C91.7549 36.6826 91.4473 36.3779 90.8613 36.3779H87.3193C86.8154 36.3779 86.3877 36.29 86.0361 36.1143C85.6846 35.9385 85.3975 35.7188 85.1748 35.4551C84.958 35.1914 84.7998 34.9072 84.7002 34.6025C84.6064 34.2979 84.5596 34.0137 84.5596 33.75C84.5596 33.2402 84.6504 32.8125 84.832 32.4668C85.0137 32.1152 85.2422 31.8311 85.5176 31.6143C85.793 31.3975 86.0918 31.2422 86.4141 31.1484C86.7363 31.0488 87.0381 30.999 87.3193 30.999H92.9355V33.2842H87.3369C87.2197 33.2842 87.126 33.2988 87.0557 33.3281C86.9912 33.3516 86.9414 33.3867 86.9062 33.4336C86.877 33.4746 86.8594 33.5215 86.8535 33.5742C86.8477 33.6211 86.8447 33.668 86.8447 33.7148C86.8506 33.8086 86.8682 33.8818 86.8975 33.9346C86.9268 33.9873 86.9619 34.0254 87.0029 34.0488C87.0498 34.0723 87.0996 34.0869 87.1523 34.0928C87.2109 34.0928 87.2666 34.0928 87.3193 34.0928H90.8613C91.4473 34.0928 91.9453 34.1982 92.3555 34.4092C92.7656 34.6201 93.0967 34.8867 93.3486 35.209C93.6006 35.5254 93.7822 35.8711 93.8936 36.2461C94.0107 36.6211 94.0693 36.9697 94.0693 37.292Z" fill="#25A257"/>
</svg>
