<svg width="106" height="105" viewBox="0 0 106 105" fill="none" xmlns="http://www.w3.org/2000/svg">
<path d="M100.809 47.8091C103.172 74.2132 83.6816 97.5331 57.2774 99.8953C30.8733 102.257 7.55341 82.7675 5.19121 56.3634C2.82901 29.9592 22.319 6.63935 48.7231 4.27716C75.1273 1.91496 98.4471 21.4049 100.809 47.8091Z" fill="#27AD5F"/>
<path d="M92.5486 63.2062C94.0151 79.5991 81.9154 94.0765 65.5225 95.5431C49.13 97.0096 34.6522 84.9099 33.1857 68.517C31.7191 52.1245 43.8192 37.6467 60.2117 36.1802C76.6047 34.7136 91.0821 46.8137 92.5486 63.2062Z" fill="#25A257"/>
<path d="M9.98753 69.1465C9.56547 65.4478 9.71035 61.7747 9.92351 58.0613C10.2642 52.1193 11.8359 46.0351 14.5491 40.7298C24.8919 20.5069 49.4213 11.5182 71.0767 12.2053C74.245 12.3058 77.3952 12.4681 80.5323 12.7714C71.5845 6.49776 60.4608 3.22715 48.7241 4.27716C22.3196 6.63939 2.82995 29.9588 5.19219 56.3634C5.81769 63.355 7.91603 69.8595 11.1492 75.6043C10.6678 73.4691 10.2358 71.3247 9.98753 69.1465Z" fill="#3ABB69"/>
<path d="M82.2048 24.2173C79.1117 22.331 74.5899 23.2135 72.266 25.9936L44.2514 59.5137C43.528 60.3788 42.2404 60.4939 41.3749 59.771L31.202 51.2688C27.9732 48.5706 23.1241 49.0044 20.4259 52.2329C17.7276 55.4614 18.1614 60.3104 21.3899 63.0083L38.9998 77.7265C42.2283 80.4247 47.0773 79.9909 49.7756 76.7624L84.1176 35.6724C87.0607 32.1506 86.2775 26.7007 82.2048 24.2173Z" fill="#EFF7F1"/>
<path d="M83.32 25.7986C83.439 25.6607 83.5562 25.5213 83.669 25.3763C83.2396 24.9444 82.7546 24.5513 82.2045 24.2157C79.1109 22.3295 74.5896 23.2115 72.2664 25.9916L65.4384 34.1609C70.4813 30.0444 76.7098 25.723 83.32 25.7986Z" fill="white"/>
<path d="M33.3658 53.0751L31.2025 51.267C28.2358 48.7875 23.9101 48.9661 21.1333 51.5145C25.2257 51.2784 29.4744 51.7333 33.3658 53.0751Z" fill="white"/>
<path d="M55.9327 67.0992C50.7422 70.0281 45.0098 72.6811 38.908 72.0977C34.7411 71.6994 31.0008 69.6859 27.2388 67.8972L39.0003 77.7266C42.2288 80.4253 47.0778 79.9915 49.7761 76.7626L60.0192 64.5071C58.7018 65.4306 57.3449 66.3022 55.9327 67.0992Z" fill="#D2EAD9"/>
</svg>
